<?xml version="1.0" encoding="UTF-8" standalone="no"?>
<!DOCTYPE svg PUBLIC "-//W3C//DTD SVG 20010904//EN"
              "http://www.w3.org/TR/2001/REC-SVG-20010904/DTD/svg10.dtd">

<svg xmlns="http://www.w3.org/2000/svg"
     width="9.98333in" height="2.45in"
     viewBox="0 0 2995 735">
  <path id="Selección #1"
        fill="none" stroke="black" stroke-width="1"
        d="M 334.00,0.21
           C 334.00,0.21 383.00,0.21 383.00,0.21
             383.00,0.21 403.00,1.00 403.00,1.00
             414.50,1.14 440.69,5.73 452.00,8.76
             452.00,8.76 462.00,12.09 462.00,12.09
             462.00,12.09 491.00,20.71 491.00,20.71
             491.00,20.71 499.00,24.25 499.00,24.25
             499.00,24.25 521.00,33.37 521.00,33.37
             545.62,45.40 564.26,57.54 586.00,74.12
             586.00,74.12 601.00,85.43 601.00,85.43
             628.79,108.52 653.62,137.80 673.34,168.00
             673.34,168.00 686.69,189.00 686.69,189.00
             686.69,189.00 694.48,205.00 694.48,205.00
             694.48,205.00 702.34,221.00 702.34,221.00
             708.58,235.11 716.49,258.03 720.51,273.00
             720.51,273.00 724.29,293.00 724.29,293.00
             724.29,293.00 726.69,302.00 726.69,302.00
             726.69,302.00 730.18,330.00 730.18,330.00
             731.21,338.46 731.95,336.64 732.00,347.00
             732.00,347.00 732.95,358.00 732.95,358.00
             732.95,358.00 732.95,375.00 732.95,375.00
             732.95,375.00 731.82,397.00 731.82,397.00
             731.82,397.00 729.17,411.00 729.17,411.00
             729.17,411.00 727.68,431.00 727.68,431.00
             727.68,431.00 724.67,442.00 724.67,442.00
             724.67,442.00 715.28,480.00 715.28,480.00
             715.28,480.00 711.01,491.00 711.01,491.00
             702.09,516.19 696.64,529.76 682.73,553.00
             682.73,553.00 675.46,565.00 675.46,565.00
             675.46,565.00 671.16,573.00 671.16,573.00
             671.16,573.00 660.81,586.00 660.81,586.00
             660.81,586.00 653.76,596.00 653.76,596.00
             653.76,596.00 636.38,616.42 636.38,616.42
             636.38,616.42 630.67,623.68 630.67,623.68
             630.67,623.68 618.17,634.27 618.17,634.27
             618.17,634.27 590.01,658.81 590.01,658.81
             590.01,658.81 581.91,666.16 581.91,666.16
             581.91,666.16 573.04,671.44 573.04,671.44
             573.04,671.44 564.96,677.80 564.96,677.80
             564.96,677.80 544.04,688.80 544.04,688.80
             544.04,688.80 534.99,695.33 534.99,695.33
             534.99,695.33 525.00,699.37 525.00,699.37
             510.30,706.54 495.50,712.19 480.00,717.35
             480.00,717.35 469.00,721.25 469.00,721.25
             469.00,721.25 459.00,723.48 459.00,723.48
             459.00,723.48 449.00,726.33 449.00,726.33
             449.00,726.33 432.00,729.08 432.00,729.08
             432.00,729.08 421.00,731.69 421.00,731.69
             421.00,731.69 385.00,735.00 385.00,735.00
             385.00,735.00 354.00,735.00 354.00,735.00
             354.00,735.00 333.00,734.00 333.00,734.00
             333.00,734.00 309.00,731.68 309.00,731.68
             309.00,731.68 300.00,729.17 300.00,729.17
             300.00,729.17 280.00,725.98 280.00,725.98
             280.00,725.98 269.00,722.44 269.00,722.44
             269.00,722.44 241.00,714.29 241.00,714.29
             241.00,714.29 234.00,711.19 234.00,711.19
             234.00,711.19 226.00,708.53 226.00,708.53
             226.00,708.53 207.00,699.36 207.00,699.36
             207.00,699.36 193.00,692.91 193.00,692.91
             193.00,692.91 159.00,671.96 159.00,671.96
             159.00,671.96 140.00,657.23 140.00,657.23
             140.00,657.23 119.17,640.54 119.17,640.54
             119.17,640.54 100.91,621.00 100.91,621.00
             71.32,589.23 49.05,555.61 31.34,516.00
             31.34,516.00 21.08,492.00 21.08,492.00
             21.08,492.00 13.57,466.00 13.57,466.00
             13.57,466.00 8.88,450.00 8.88,450.00
             8.88,450.00 6.49,437.00 6.49,437.00
             6.49,437.00 3.43,424.00 3.43,424.00
             3.43,424.00 2.83,415.00 2.83,415.00
             2.83,415.00 1.00,388.00 1.00,388.00
             1.00,388.00 0.01,374.00 0.01,374.00
             0.01,374.00 0.96,362.00 0.96,362.00
             0.96,362.00 0.96,347.00 0.96,347.00
             0.96,347.00 4.31,310.00 4.31,310.00
             4.31,310.00 6.54,301.00 6.54,301.00
             6.54,301.00 8.50,287.00 8.50,287.00
             8.50,287.00 13.26,271.00 13.26,271.00
             13.26,271.00 16.05,259.00 16.05,259.00
             24.41,232.60 32.52,217.26 44.65,193.00
             44.65,193.00 52.19,178.00 52.19,178.00
             59.90,164.91 69.44,152.92 78.79,141.00
             91.77,124.45 105.35,108.30 121.00,94.17
             121.00,94.17 141.00,78.34 141.00,78.34
             141.00,78.34 155.00,67.15 155.00,67.15
             155.00,67.15 167.00,59.12 167.00,59.12
             167.00,59.12 178.00,51.51 178.00,51.51
             178.00,51.51 223.00,28.17 223.00,28.17
             223.00,28.17 250.00,18.20 250.00,18.20
             250.00,18.20 261.00,14.04 261.00,14.04
             261.00,14.04 271.00,11.91 271.00,11.91
             271.00,11.91 281.00,8.50 281.00,8.50
             281.00,8.50 293.00,6.68 293.00,6.68
             293.00,6.68 306.00,3.44 306.00,3.44
             306.00,3.44 334.00,0.21 334.00,0.21 Z
           M 416.00,58.00
           C 416.00,58.00 372.00,54.00 372.00,54.00
             369.26,53.99 363.72,53.60 361.47,54.99
             358.52,56.81 355.81,62.86 354.25,66.00
             349.32,75.91 345.90,88.95 345.00,100.00
             345.00,100.00 357.00,91.67 357.00,91.67
             357.00,91.67 385.00,74.31 385.00,74.31
             385.00,74.31 416.00,58.00 416.00,58.00 Z
           M 297.00,62.00
           C 297.00,62.00 296.00,62.00 296.00,62.00
             296.00,62.00 297.00,63.00 297.00,63.00
             297.00,63.00 297.00,62.00 297.00,62.00 Z
           M 296.00,63.00
           C 283.13,64.08 254.35,75.13 242.00,80.70
             237.37,82.78 227.73,86.48 224.72,90.33
             221.86,93.99 218.80,109.83 217.92,115.00
             213.21,142.72 212.96,148.07 213.00,176.00
             213.00,176.00 214.04,188.00 214.04,188.00
             214.04,188.00 214.04,198.00 214.04,198.00
             217.76,235.64 229.27,275.71 242.58,311.00
             261.73,361.78 287.20,409.68 318.58,454.00
             318.58,454.00 334.45,476.00 334.45,476.00
             334.45,476.00 357.85,503.00 357.85,503.00
             357.85,503.00 370.04,517.00 370.04,517.00
             370.04,517.00 388.00,534.04 388.00,534.04
             388.00,534.04 408.00,553.99 408.00,553.99
             430.18,575.63 468.55,601.23 496.00,616.30
             496.00,616.30 519.00,627.70 519.00,627.70
             521.55,628.85 527.40,631.65 530.00,631.51
             534.04,631.30 544.42,622.85 548.00,620.12
             559.04,611.70 568.87,602.53 579.00,593.09
             585.42,587.10 589.32,585.02 594.00,577.00
             594.00,577.00 568.00,563.14 568.00,563.14
             568.00,563.14 549.00,551.60 549.00,551.60
             549.00,551.60 531.00,540.10 531.00,540.10
             531.00,540.10 484.04,500.83 484.04,500.83
             484.04,500.83 476.91,493.00 476.91,493.00
             476.91,493.00 460.91,476.00 460.91,476.00
             460.91,476.00 450.29,465.00 450.29,465.00
             408.78,417.67 366.03,348.36 339.69,291.00
             312.24,231.21 289.22,171.77 290.00,105.00
             290.08,98.23 291.49,84.70 292.80,78.00
             292.80,78.00 296.00,63.00 296.00,63.00 Z
           M 599.00,162.00
           C 585.65,142.76 552.26,116.09 532.00,103.32
             526.09,99.59 512.61,89.83 506.00,90.48
             506.00,90.48 489.00,93.80 489.00,93.80
             457.37,100.12 437.44,107.30 409.00,122.77
             393.54,131.18 379.65,140.52 366.00,151.61
             362.46,154.49 353.91,160.85 352.69,165.00
             351.71,168.30 356.74,184.85 358.02,189.00
             364.36,209.45 371.64,229.28 380.00,249.00
             380.00,249.00 398.00,235.42 398.00,235.42
             398.00,235.42 435.00,211.42 435.00,211.42
             469.73,191.27 507.84,177.23 547.00,168.58
             547.00,168.58 569.00,164.29 569.00,164.29
             569.00,164.29 588.00,162.91 588.00,162.91
             588.00,162.91 599.00,162.00 599.00,162.00 Z
           M 158.96,136.00
           C 145.06,145.98 120.57,177.17 110.00,192.00
             103.19,201.55 97.02,207.86 97.00,220.00
             97.00,220.00 97.00,263.00 97.00,263.00
             97.00,263.00 98.00,278.00 98.00,278.00
             98.38,310.41 110.35,359.31 121.31,390.00
             150.52,471.83 198.39,544.82 262.00,604.09
             262.00,604.09 274.00,615.68 274.00,615.68
             274.00,615.68 283.99,623.18 283.99,623.18
             283.99,623.18 292.09,631.00 292.09,631.00
             303.71,640.94 324.02,655.82 337.00,664.05
             342.35,667.45 357.92,677.91 363.00,679.36
             365.67,680.13 369.20,680.03 372.00,680.00
             372.00,680.00 390.00,679.00 390.00,679.00
             399.13,678.89 408.05,676.80 417.00,675.25
             433.30,672.42 449.67,669.52 465.00,663.00
             465.00,663.00 440.00,647.97 440.00,647.97
             440.00,647.97 422.00,635.29 422.00,635.29
             422.00,635.29 411.01,628.10 411.01,628.10
             411.01,628.10 402.91,620.74 402.91,620.74
             402.91,620.74 373.00,596.14 373.00,596.14
             373.00,596.14 365.09,589.82 365.09,589.82
             365.09,589.82 350.58,574.28 350.58,574.28
             350.58,574.28 338.09,562.00 338.09,562.00
             276.82,496.24 230.83,427.57 197.40,344.00
             183.93,310.33 172.30,275.71 165.61,240.00
             161.89,220.14 159.03,199.19 159.00,179.00
             159.00,179.00 158.00,160.00 158.00,160.00
             158.00,160.00 158.96,150.00 158.96,150.00
             158.96,150.00 158.96,136.00 158.96,136.00 Z
           M 1956.00,527.00
           C 1947.31,536.37 1922.50,547.50 1910.00,551.67
             1884.39,560.20 1868.39,560.30 1842.00,560.00
             1812.55,559.65 1778.86,545.68 1758.09,524.91
             1738.27,505.10 1725.04,475.18 1725.00,447.00
             1725.00,447.00 1725.00,429.00 1725.00,429.00
             1725.35,399.59 1740.02,369.93 1760.04,349.00
             1767.16,341.56 1774.90,334.77 1783.00,328.42
             1785.75,326.27 1790.04,324.05 1788.90,319.99
             1788.90,319.99 1783.86,311.00 1783.86,311.00
             1781.21,306.25 1779.20,301.17 1777.52,296.00
             1770.22,273.63 1772.92,244.07 1785.42,224.00
             1802.05,197.30 1834.93,182.05 1866.00,182.00
             1866.00,182.00 1890.00,182.00 1890.00,182.00
             1897.41,182.01 1908.55,183.54 1916.00,184.75
             1916.00,184.75 1949.00,191.63 1949.00,191.63
             1951.59,192.30 1959.73,194.24 1961.40,195.85
             1963.37,197.74 1962.99,201.47 1963.00,204.00
             1963.00,204.00 1963.00,264.00 1963.00,264.00
             1963.00,264.00 1947.00,256.31 1947.00,256.31
             1937.35,251.88 1927.31,247.95 1917.00,245.37
             1900.04,241.13 1873.61,237.47 1860.04,251.04
             1855.25,255.83 1853.31,260.25 1853.04,267.00
             1852.30,285.17 1869.40,304.64 1880.20,318.00
             1880.20,318.00 1932.58,382.00 1932.58,382.00
             1932.58,382.00 1964.00,420.00 1964.00,420.00
             1964.00,420.00 1976.58,394.00 1976.58,394.00
             1983.76,374.98 1987.07,354.24 1988.00,334.00
             1988.00,334.00 2057.00,334.00 2057.00,334.00
             2057.00,334.00 2055.15,353.00 2055.15,353.00
             2052.06,378.91 2045.38,408.37 2034.22,432.00
             2029.14,442.75 2024.14,452.23 2017.28,462.00
             2015.27,464.87 2009.18,471.64 2009.73,475.00
             2010.08,477.13 2013.00,480.28 2014.39,482.00
             2014.39,482.00 2026.61,497.00 2026.61,497.00
             2026.61,497.00 2072.00,553.00 2072.00,553.00
             2072.00,553.00 1985.00,553.00 1985.00,553.00
             1985.00,553.00 1978.29,552.43 1978.29,552.43
             1978.29,552.43 1970.00,544.00 1970.00,544.00
             1970.00,544.00 1956.00,527.00 1956.00,527.00 Z
           M 824.00,189.00
           C 824.00,189.00 945.00,189.00 945.00,189.00
             945.00,189.00 958.00,189.96 958.00,189.96
             990.09,191.36 1023.54,195.98 1052.00,211.86
             1093.66,235.11 1120.14,276.84 1129.20,323.00
             1131.59,335.21 1132.98,347.57 1133.16,360.00
             1133.16,360.00 1133.16,372.00 1133.16,372.00
             1133.16,372.00 1133.16,388.00 1133.16,388.00
             1133.16,388.00 1130.25,413.00 1130.25,413.00
             1122.56,459.90 1099.28,499.49 1059.00,525.66
             1029.00,545.14 992.04,550.51 957.00,552.04
             957.00,552.04 944.00,553.00 944.00,553.00
             944.00,553.00 824.00,553.00 824.00,553.00
             824.00,553.00 824.00,189.00 824.00,189.00 Z
           M 2218.00,189.00
           C 2218.00,189.00 2339.00,189.00 2339.00,189.00
             2339.00,189.00 2352.00,189.96 2352.00,189.96
             2384.09,191.36 2417.54,195.98 2446.00,211.86
             2487.66,235.11 2514.14,276.84 2523.20,323.00
             2525.59,335.21 2526.98,347.57 2527.16,360.00
             2527.16,360.00 2527.16,372.00 2527.16,372.00
             2527.16,372.00 2527.16,388.00 2527.16,388.00
             2527.16,388.00 2524.25,413.00 2524.25,413.00
             2516.56,459.90 2493.28,499.49 2453.00,525.66
             2423.00,545.14 2386.04,550.51 2351.00,552.04
             2351.00,552.04 2338.00,553.00 2338.00,553.00
             2338.00,553.00 2218.00,553.00 2218.00,553.00
             2218.00,553.00 2218.00,189.00 2218.00,189.00 Z
           M 1440.00,202.00
           C 1440.00,202.00 1520.00,202.00 1520.00,202.00
             1520.00,202.00 1520.00,279.00 1520.00,279.00
             1520.00,279.00 1601.00,279.00 1601.00,279.00
             1601.00,279.00 1601.00,342.00 1601.00,342.00
             1601.00,342.00 1520.00,342.00 1520.00,342.00
             1520.00,342.00 1520.00,458.00 1520.00,458.00
             1520.11,466.84 1521.72,478.74 1529.04,484.58
             1533.96,488.51 1543.80,489.92 1550.00,490.00
             1550.00,490.00 1594.00,490.00 1594.00,490.00
             1594.00,490.00 1594.00,553.00 1594.00,553.00
             1594.00,553.00 1533.00,553.00 1533.00,553.00
             1509.76,553.00 1488.01,553.09 1468.00,538.96
             1445.94,523.38 1441.29,492.09 1441.00,467.00
             1441.00,467.00 1440.00,452.00 1440.00,452.00
             1440.00,452.00 1440.00,342.00 1440.00,342.00
             1440.00,342.00 1401.00,342.00 1401.00,342.00
             1401.00,342.00 1401.00,288.00 1401.00,288.00
             1401.02,279.36 1401.36,279.02 1410.00,279.00
             1410.00,279.00 1440.00,279.00 1440.00,279.00
             1440.00,279.00 1440.00,202.00 1440.00,202.00 Z
           M 2834.00,202.00
           C 2834.00,202.00 2914.00,202.00 2914.00,202.00
             2914.00,202.00 2914.00,279.00 2914.00,279.00
             2914.00,279.00 2995.00,279.00 2995.00,279.00
             2995.00,279.00 2995.00,342.00 2995.00,342.00
             2995.00,342.00 2914.00,342.00 2914.00,342.00
             2914.00,342.00 2914.00,458.00 2914.00,458.00
             2914.11,466.84 2915.72,478.74 2923.04,484.58
             2927.96,488.51 2937.80,489.92 2944.00,490.00
             2944.00,490.00 2988.00,490.00 2988.00,490.00
             2988.00,490.00 2988.00,553.00 2988.00,553.00
             2988.00,553.00 2927.00,553.00 2927.00,553.00
             2903.76,553.00 2882.01,553.09 2862.00,538.96
             2839.94,523.38 2835.29,492.09 2835.00,467.00
             2835.00,467.00 2834.00,452.00 2834.00,452.00
             2834.00,452.00 2834.00,342.00 2834.00,342.00
             2834.00,342.00 2795.00,342.00 2795.00,342.00
             2795.00,342.00 2795.00,288.00 2795.00,288.00
             2795.02,279.36 2795.36,279.02 2804.00,279.00
             2804.00,279.00 2834.00,279.00 2834.00,279.00
             2834.00,279.00 2834.00,202.00 2834.00,202.00 Z
           M 674.00,335.00
           C 673.97,324.53 671.24,314.22 669.20,304.00
             665.13,283.66 658.76,259.64 649.74,241.00
             649.74,241.00 641.24,224.00 641.24,224.00
             640.15,221.84 638.52,218.32 636.47,216.99
             634.57,215.76 631.23,216.00 629.00,216.00
             629.00,216.00 599.00,216.00 599.00,216.00
             585.88,216.02 561.10,220.85 548.00,224.13
             518.10,231.60 490.00,241.80 463.00,256.86
             443.64,267.66 421.97,284.57 404.00,298.00
             410.39,312.83 432.81,349.73 442.33,364.00
             442.33,364.00 452.67,379.00 452.67,379.00
             454.22,381.27 456.45,384.78 459.04,385.87
             462.77,387.45 472.06,382.13 476.00,380.69
             476.00,380.69 522.00,364.05 522.00,364.05
             547.01,354.91 575.80,348.29 602.00,343.39
             602.00,343.39 623.00,339.29 623.00,339.29
             623.00,339.29 632.00,338.71 632.00,338.71
             632.00,338.71 642.00,336.96 642.00,336.96
             642.00,336.96 651.00,336.96 651.00,336.96
             651.00,336.96 674.00,335.00 674.00,335.00 Z
           M 909.00,482.00
           C 909.00,482.00 933.00,482.00 933.00,482.00
             933.00,482.00 952.00,481.00 952.00,481.00
             971.50,480.77 994.72,472.78 1010.00,460.71
             1033.65,442.03 1044.95,409.56 1045.00,380.00
             1045.00,380.00 1045.00,360.00 1045.00,360.00
             1044.87,349.39 1041.57,330.98 1037.95,321.00
             1032.44,305.84 1023.80,291.75 1011.00,281.67
             981.79,258.66 944.17,260.00 909.00,260.00
             909.00,260.00 909.00,482.00 909.00,482.00 Z
           M 2303.00,482.00
           C 2303.00,482.00 2327.00,482.00 2327.00,482.00
             2327.00,482.00 2346.00,481.00 2346.00,481.00
             2365.50,480.77 2388.72,472.78 2404.00,460.71
             2427.65,442.03 2438.95,409.56 2439.00,380.00
             2439.00,380.00 2439.00,360.00 2439.00,360.00
             2438.87,349.39 2435.57,330.98 2431.95,321.00
             2426.44,305.84 2417.80,291.75 2405.00,281.67
             2375.79,258.66 2338.17,260.00 2303.00,260.00
             2303.00,260.00 2303.00,482.00 2303.00,482.00 Z
           M 1258.00,273.21
           C 1258.00,273.21 1288.00,273.21 1288.00,273.21
             1315.89,273.04 1348.24,284.48 1369.00,303.17
             1393.79,325.48 1405.62,353.54 1410.13,386.00
             1411.05,392.60 1411.99,399.33 1412.00,406.00
             1412.00,406.00 1412.00,429.00 1412.00,429.00
             1412.00,429.00 1410.13,447.00 1410.13,447.00
             1405.62,479.51 1393.84,507.48 1369.00,529.83
             1348.24,548.52 1315.89,559.96 1288.00,560.00
             1288.00,560.00 1264.00,560.00 1264.00,560.00
             1258.50,559.93 1247.57,558.29 1242.00,557.20
             1204.45,549.83 1175.27,529.12 1157.32,495.00
             1147.66,476.64 1141.03,446.75 1141.00,426.00
             1141.00,426.00 1141.00,407.00 1141.00,407.00
             1141.04,380.51 1149.74,348.03 1164.52,326.00
             1182.47,299.24 1207.82,283.30 1239.00,276.42
             1239.00,276.42 1258.00,273.21 1258.00,273.21 Z
           M 2652.00,273.21
           C 2652.00,273.21 2682.00,273.21 2682.00,273.21
             2709.89,273.04 2742.24,284.48 2763.00,303.17
             2787.79,325.48 2799.62,353.54 2804.13,386.00
             2805.05,392.60 2805.99,399.33 2806.00,406.00
             2806.00,406.00 2806.00,429.00 2806.00,429.00
             2806.00,429.00 2804.13,447.00 2804.13,447.00
             2799.62,479.51 2787.84,507.48 2763.00,529.83
             2742.24,548.52 2709.89,559.96 2682.00,560.00
             2682.00,560.00 2658.00,560.00 2658.00,560.00
             2652.50,559.93 2641.57,558.29 2636.00,557.20
             2598.45,549.83 2569.27,529.12 2551.32,495.00
             2541.66,476.64 2535.03,446.75 2535.00,426.00
             2535.00,426.00 2535.00,407.00 2535.00,407.00
             2535.04,380.51 2543.74,348.03 2558.52,326.00
             2576.47,299.24 2601.82,283.30 2633.00,276.42
             2633.00,276.42 2652.00,273.21 2652.00,273.21 Z
           M 1270.00,336.15
           C 1265.05,337.11 1259.51,338.13 1255.00,340.38
             1232.12,351.74 1224.04,383.31 1224.00,407.00
             1224.00,407.00 1224.00,426.00 1224.00,426.00
             1224.01,435.27 1225.84,446.01 1228.13,455.00
             1234.21,478.91 1248.83,496.69 1275.00,497.00
             1295.13,497.23 1309.89,489.49 1319.19,471.00
             1323.47,462.49 1325.45,454.26 1327.20,445.00
             1327.94,441.03 1328.95,432.97 1329.00,429.00
             1329.00,429.00 1329.00,406.00 1329.00,406.00
             1328.96,380.27 1319.44,346.41 1292.00,338.04
             1285.59,336.08 1281.58,335.93 1275.00,336.15
             1275.00,336.15 1270.00,336.15 1270.00,336.15 Z
           M 2664.00,336.15
           C 2659.05,337.11 2653.51,338.13 2649.00,340.38
             2626.12,351.74 2618.04,383.31 2618.00,407.00
             2618.00,407.00 2618.00,426.00 2618.00,426.00
             2618.01,435.27 2619.84,446.01 2622.13,455.00
             2628.21,478.91 2642.83,496.69 2669.00,497.00
             2689.13,497.23 2703.89,489.49 2713.19,471.00
             2717.47,462.49 2719.45,454.26 2721.20,445.00
             2721.94,441.03 2722.95,432.97 2723.00,429.00
             2723.00,429.00 2723.00,406.00 2723.00,406.00
             2722.96,380.27 2713.44,346.41 2686.00,338.04
             2679.59,336.08 2675.58,335.93 2669.00,336.15
             2669.00,336.15 2664.00,336.15 2664.00,336.15 Z
           M 57.00,363.00
           C 53.27,369.41 56.90,386.83 57.00,395.00
             57.19,411.84 60.35,422.87 63.60,439.00
             67.64,459.08 76.17,480.40 84.69,499.00
             103.46,539.98 129.32,575.10 163.00,605.16
             170.51,611.87 184.90,624.41 193.00,629.56
             193.00,629.56 205.00,636.06 205.00,636.06
             212.38,640.28 217.62,643.63 226.00,646.00
             221.30,639.44 207.43,626.51 201.00,620.00
             201.00,620.00 170.30,586.00 170.30,586.00
             170.30,586.00 147.58,555.00 147.58,555.00
             117.20,512.93 97.19,477.12 78.00,429.00
             78.00,429.00 67.08,401.00 67.08,401.00
             67.08,401.00 61.86,383.00 61.86,383.00
             59.93,376.31 57.59,370.00 57.00,363.00 Z
           M 1830.00,372.00
           C 1795.93,396.39 1791.58,448.35 1821.00,478.00
             1827.58,484.62 1833.28,489.03 1842.00,492.55
             1858.98,499.41 1880.65,497.19 1897.00,489.51
             1903.58,486.42 1909.02,481.99 1915.00,478.00
             1915.00,478.00 1905.00,464.00 1905.00,464.00
             1905.00,464.00 1886.25,441.00 1886.25,441.00
             1886.25,441.00 1830.00,372.00 1830.00,372.00 Z
           M 675.00,390.00
           C 675.00,390.00 643.00,393.17 643.00,393.17
             624.14,394.97 604.44,398.51 586.00,402.88
             586.00,402.88 537.00,416.69 537.00,416.69
             537.00,416.69 506.00,427.69 506.00,427.69
             506.00,427.69 494.00,432.00 494.00,432.00
             502.08,443.42 512.16,451.42 522.00,461.01
             543.18,481.67 565.38,497.76 591.00,512.42
             602.26,518.86 618.57,527.64 631.00,531.00
             640.79,515.95 645.94,502.41 652.45,486.00
             652.45,486.00 661.48,463.00 661.48,463.00
             667.90,443.50 675.00,410.37 675.00,390.00 Z
           M 227.00,646.00
           C 227.00,646.00 226.00,646.00 226.00,646.00
             226.00,646.00 227.00,647.00 227.00,647.00
             227.00,647.00 227.00,646.00 227.00,646.00 Z" />
</svg>
